<svg width="603" height="697" viewBox="0 0 603 697" fill="none" xmlns="http://www.w3.org/2000/svg">
<g clip-path="url(#clip0_609_117)">
<path d="M602.106 266C602.106 267.98 602.082 269.957 602.036 271.93C602.016 273.22 601.976 274.51 601.926 275.8C601.916 276.17 601.906 276.53 601.886 276.9C601.856 277.61 601.826 278.31 601.796 279C601.576 283.61 601.236 288.187 600.776 292.73C600.756 292.95 600.736 293.17 600.716 293.38C600.666 293.83 600.626 294.28 600.566 294.73C600.426 296.08 600.276 297.43 600.106 298.76C599.996 299.66 599.886 300.55 599.766 301.45C599.706 301.88 599.646 302.31 599.596 302.73C599.526 303.2 599.466 303.66 599.396 304.12C599.366 304.32 599.336 304.52 599.306 304.73C599.206 305.41 599.106 306.1 598.996 306.78C598.866 307.67 598.726 308.55 598.576 309.44C598.436 310.32 598.286 311.2 598.126 312.08C597.976 312.96 597.816 313.84 597.656 314.72C597.496 315.61 597.326 316.49 597.156 317.37C596.296 321.73 595.336 326.053 594.276 330.34C593.856 332.01 593.426 333.677 592.986 335.34C592.256 338.04 591.486 340.727 590.676 343.4C590.446 344.14 590.216 344.88 589.986 345.61C589.726 346.45 589.456 347.29 589.186 348.12C588.916 348.96 588.646 349.79 588.366 350.62C588.086 351.45 587.806 352.28 587.516 353.11C587.236 353.93 586.946 354.76 586.646 355.58C586.356 356.41 586.056 357.23 585.756 358.05C585.446 358.87 585.146 359.69 584.836 360.5C584.216 362.14 583.579 363.763 582.926 365.37C582.606 366.18 582.276 366.99 581.936 367.79C580.606 371.01 579.212 374.193 577.756 377.34C577.436 378.04 577.116 378.74 576.786 379.43C576.566 379.89 576.356 380.34 576.136 380.8C575.766 381.56 575.406 382.31 575.036 383.06C574.666 383.82 574.286 384.59 573.896 385.36C573.126 386.88 572.343 388.397 571.546 389.91C570.756 391.42 569.946 392.93 569.116 394.42C568.286 395.91 567.446 397.4 566.596 398.87C566.166 399.61 565.736 400.35 565.306 401.08C563.576 404.01 561.789 406.907 559.946 409.77C558.116 412.62 556.226 415.437 554.276 418.22C553.306 419.61 552.316 421 551.316 422.37C550.916 422.92 550.516 423.46 550.116 424C549.626 424.68 549.116 425.35 548.606 426.02C526.934 454.846 499.622 478.961 468.333 496.895C437.045 514.83 402.434 526.211 366.607 530.344C330.781 534.477 294.488 531.276 259.937 520.936C225.387 510.597 193.302 493.334 165.636 470.2C162.716 467.76 159.849 465.26 157.036 462.7C138.983 446.26 123.267 427.425 110.326 406.72C108.716 404.13 107.136 401.51 105.616 398.87C82.2817 358.481 70.0317 312.645 70.1058 266C70.1058 119.09 189.196 4.88258e-05 336.106 4.88258e-05C380.311 -0.0267431 423.825 10.9729 462.707 32.0031C501.59 53.0333 534.613 83.4297 558.786 120.44C559.226 121.11 559.666 121.79 560.106 122.47C584.14 159.875 598.355 202.736 601.436 247.09C601.886 253.33 602.109 259.633 602.106 266Z" fill="#F2F2F2"/>
<path d="M560.107 122.47H191.657C191.392 122.464 191.14 122.354 190.955 122.165C190.77 121.975 190.666 121.72 190.666 121.455C190.666 121.19 190.77 120.936 190.955 120.746C191.14 120.557 191.392 120.447 191.657 120.44H558.787C559.227 121.11 559.667 121.79 560.107 122.47Z" fill="#CACACA"/>
<path d="M214.011 108.259C220.045 108.259 224.937 103.259 224.937 97.0907C224.937 90.9223 220.045 85.9219 214.011 85.9219C207.977 85.9219 203.086 90.9223 203.086 97.0907C203.086 103.259 207.977 108.259 214.011 108.259Z" fill="#3F3D56"/>
<path d="M251.753 108.259C257.787 108.259 262.679 103.259 262.679 97.0907C262.679 90.9223 257.787 85.9219 251.753 85.9219C245.72 85.9219 240.828 90.9223 240.828 97.0907C240.828 103.259 245.72 108.259 251.753 108.259Z" fill="#3F3D56"/>
<path d="M289.494 108.259C295.528 108.259 300.419 103.259 300.419 97.0907C300.419 90.9223 295.528 85.9219 289.494 85.9219C283.46 85.9219 278.568 90.9223 278.568 97.0907C278.568 103.259 283.46 108.259 289.494 108.259Z" fill="#3F3D56"/>
<path d="M601.436 247.09C591.826 251.46 583.216 258.52 575.696 268.23C567.006 279.46 557.696 287.37 548.186 292.73C547.736 292.98 547.296 293.22 546.846 293.46C538.321 298.054 528.972 300.919 519.336 301.89C516.425 302.183 513.501 302.323 510.576 302.31C509.356 302.3 508.136 302.27 506.926 302.21C504.056 302.07 501.216 301.79 498.426 301.39C482.406 299.11 467.916 292.95 457.186 287.16C442.484 279.051 426.526 273.467 409.976 270.64C407.016 270.15 404.063 269.767 401.116 269.49C399.896 269.37 398.686 269.28 397.476 269.2C394.506 269 391.539 268.907 388.576 268.92C387.056 268.93 385.546 268.96 384.026 269.02C358.486 270.02 325.176 277.3 295.306 302.73C294.906 303.07 294.516 303.41 294.116 303.75C293.746 304.07 293.376 304.4 293.006 304.73C288.278 308.933 283.823 313.432 279.666 318.2C274.901 323.661 270.492 329.423 266.466 335.45C261.685 342.506 256.101 348.983 249.826 354.75C240.544 363.315 233.111 373.688 227.983 385.23C222.855 396.772 220.141 409.241 220.006 421.87V422.37C219.996 422.91 219.996 423.46 219.996 424H550.126C550.526 423.46 550.926 422.92 551.316 422.37C552.316 421 553.306 419.61 554.276 418.22C556.226 415.44 558.116 412.623 559.946 409.77C561.796 406.91 563.583 404.013 565.306 401.08C565.736 400.35 566.166 399.61 566.596 398.87C567.446 397.4 568.286 395.91 569.116 394.42C569.946 392.93 570.756 391.42 571.546 389.91C572.346 388.4 573.129 386.883 573.896 385.36C574.286 384.59 574.666 383.82 575.036 383.06C575.406 382.31 575.766 381.56 576.136 380.8C576.356 380.34 576.566 379.89 576.786 379.43C577.116 378.74 577.436 378.04 577.756 377.34C579.216 374.19 580.609 371.007 581.936 367.79C582.276 366.99 582.606 366.18 582.926 365.37C583.576 363.76 584.213 362.137 584.836 360.5C585.146 359.69 585.446 358.87 585.756 358.05C586.056 357.23 586.356 356.41 586.646 355.58C586.946 354.76 587.236 353.93 587.516 353.11C587.806 352.28 588.086 351.45 588.366 350.62C588.646 349.79 588.916 348.96 589.186 348.12C589.456 347.29 589.726 346.45 589.986 345.61C590.216 344.88 590.446 344.14 590.676 343.4C591.486 340.73 592.256 338.043 592.986 335.34C593.426 333.68 593.856 332.013 594.276 330.34C595.336 326.06 596.296 321.737 597.156 317.37C597.326 316.49 597.496 315.61 597.656 314.72C597.816 313.84 597.976 312.96 598.126 312.08C598.286 311.2 598.436 310.32 598.576 309.44C598.726 308.55 598.866 307.67 598.996 306.78C599.106 306.1 599.206 305.41 599.306 304.73C599.336 304.52 599.366 304.32 599.396 304.12C599.466 303.65 599.526 303.19 599.586 302.73C599.646 302.3 599.706 301.87 599.766 301.45C599.886 300.55 599.996 299.66 600.106 298.76C600.276 297.43 600.426 296.08 600.566 294.73H600.576C600.616 294.28 600.666 293.83 600.716 293.38C600.736 293.17 600.756 292.95 600.776 292.73C601.236 288.19 601.576 283.613 601.796 279C601.826 278.31 601.856 277.61 601.886 276.9C601.906 276.53 601.916 276.17 601.926 275.8C601.976 274.51 602.016 273.22 602.036 271.93C602.086 269.96 602.109 267.983 602.106 266C602.106 259.64 601.883 253.337 601.436 247.09Z" fill="#F0CA5E"/>
<path d="M291.893 314.155H288.244V421.094H291.893V314.155Z" fill="#3F3D56"/>
<path d="M401.121 264.211H397.473V421.094H401.121V264.211Z" fill="#3F3D56"/>
<path d="M510.574 297.047H506.926V421.094H510.574V297.047Z" fill="#3F3D56"/>
<path d="M399.523 277.887C405.687 277.887 410.684 272.89 410.684 266.726C410.684 260.562 405.687 255.564 399.523 255.564C393.358 255.564 388.361 260.562 388.361 266.726C388.361 272.89 393.358 277.887 399.523 277.887Z" fill="#3F3D56"/>
<path d="M508.976 308.899C515.14 308.899 520.137 303.902 520.137 297.737C520.137 291.573 515.14 286.576 508.976 286.576C502.812 286.576 497.814 291.573 497.814 297.737C497.814 303.902 502.812 308.899 508.976 308.899Z" fill="#3F3D56"/>
<path d="M288.069 316.317C294.234 316.317 299.231 311.319 299.231 305.155C299.231 298.991 294.234 293.994 288.069 293.994C281.905 293.994 276.908 298.991 276.908 305.155C276.908 311.319 281.905 316.317 288.069 316.317Z" fill="#3F3D56"/>
<path d="M551.317 422.37C550.917 422.92 550.517 423.46 550.117 424C549.627 424.68 549.117 425.35 548.607 426.02H219.637V422.37H551.317Z" fill="#3F3D56"/>
<path d="M127.115 685.125H137.686L142.715 644.349L127.113 644.35L127.115 685.125Z" fill="#FFB8B8"/>
<path d="M154.616 685.56C153.389 684.321 151.927 683.339 150.316 682.67C148.704 682.01 146.978 681.67 145.236 681.67L139.006 676.95L138.676 677.08L127.396 681.67H124.416V695.37H158.506V694.94C158.511 693.197 158.17 691.47 157.502 689.86C156.834 688.25 155.853 686.788 154.616 685.56Z" fill="#2F2E41"/>
<path d="M176.229 685.125H186.8L191.829 644.349L176.227 644.35L176.229 685.125Z" fill="#FFB8B8"/>
<path d="M203.737 685.56C202.508 684.319 201.043 683.336 199.427 682.67C197.816 682.008 196.09 681.668 194.347 681.67L188.127 676.95L187.787 677.09L176.507 681.67H173.527L173.537 695.37H207.617V694.94C207.622 693.198 207.282 691.472 206.616 689.862C205.95 688.252 204.971 686.79 203.737 685.56Z" fill="#2F2E41"/>
<path d="M184.678 461.981L101.619 464.148L103.064 504.594C103.064 504.594 101.619 515.428 104.508 518.317C107.397 521.206 108.842 521.206 107.397 526.262C105.953 531.317 113.585 539.575 112.658 540.502C111.731 541.429 109.564 546.485 109.564 546.485L116.786 587.653C116.786 587.653 121.842 659.155 123.287 660.6C124.731 662.044 126.176 660.6 124.731 664.211C123.287 667.822 121.842 666.378 123.287 667.822C124.566 669.202 125.772 670.649 126.898 672.156H144.36C144.36 672.156 145.676 664.933 145.676 664.211C145.676 663.489 147.121 659.155 147.121 658.433C147.121 657.711 145.844 656.434 145.844 656.434C145.403 654.966 145.105 653.458 144.954 651.933C144.954 650.488 140.621 594.875 140.621 594.875L149.288 522.65L170.233 593.431C170.233 593.431 170.233 655.544 171.677 656.989C173.122 658.433 173.122 657.711 172.4 660.6C171.677 663.489 168.788 662.767 170.955 664.933C173.122 667.1 173.844 663.489 173.122 667.1L172.4 670.711L194.067 671.021C194.067 671.021 196.956 664.933 195.512 662.767C194.067 660.6 194.154 661.191 195.916 657.645C197.678 654.1 198.401 653.377 197.678 652.655C196.956 651.933 196.956 648.091 196.956 648.091L193.345 578.986C193.345 578.986 192.623 506.039 192.623 503.872C192.568 502.757 192.774 501.645 193.223 500.623V497.682L190.456 487.26L184.678 461.981Z" fill="#2F2E41"/>
<path d="M278.674 304.457C278.275 305.566 277.637 306.575 276.806 307.411C275.975 308.248 274.971 308.892 273.864 309.298C272.757 309.704 271.574 309.863 270.4 309.763C269.225 309.663 268.086 309.306 267.064 308.718L231.01 338.923L229.051 324.159L264.315 297.164C265.416 295.513 267.085 294.322 269.005 293.819C270.925 293.315 272.963 293.534 274.733 294.433C276.503 295.332 277.882 296.849 278.608 298.696C279.334 300.544 279.358 302.593 278.674 304.457Z" fill="#FFB8B8"/>
<path d="M119.696 316.923C132.062 316.923 142.086 306.899 142.086 294.533C142.086 282.168 132.062 272.144 119.696 272.144C107.331 272.144 97.3066 282.168 97.3066 294.533C97.3066 306.899 107.331 316.923 119.696 316.923Z" fill="#FFB8B8"/>
<path d="M137.848 272.251C135.764 267.283 126.831 264.333 112.695 264.777C98.5597 265.222 96.0843 282.078 96.0843 282.078C88.2985 289.335 100.869 311.993 103.049 308.869C105.23 305.745 108.892 308.698 108.892 308.698L105.402 289.071C109.087 290.488 113.05 291.44 116.516 289.789L110.773 286.718L125.052 288.495L119.163 283.965C119.306 283.918 119.449 283.869 119.592 283.821C121.953 284.839 124.482 285.413 127.051 285.514C130.053 285.492 133.244 284.085 134.502 281.359C134.836 280.611 135.017 279.803 135.034 278.983C139.174 280.327 141.347 285.176 141.347 285.176C140.561 280.774 139.39 276.449 137.848 272.251Z" fill="#2F2E41"/>
<path d="M137.618 317.925C132.618 317.925 129.398 318.615 121.618 319.925C107.258 322.345 115.858 335.989 115.858 335.989C115.858 335.989 116.508 335.659 114.748 335.989C112.988 336.319 106.988 341.509 106.988 341.509L96.2576 351.039C80.0876 363.729 83.7076 383.529 83.7076 383.529L107.288 407.259L96.9576 454.869C96.9576 454.869 101.348 461.939 99.0775 465.109C96.8075 468.279 119.078 467.369 119.078 467.369C134.448 474.219 188.597 468.429 188.597 468.429C187.847 466.469 180.597 451.279 180.597 451.279C183.747 445.839 180.747 437.979 180.747 437.979C180.747 437.979 177.618 400.799 175.618 395.659C173.618 390.519 180.738 362.669 185.418 362.969C190.098 363.269 220.328 347.849 220.328 347.849C220.328 347.849 219.567 346.639 229.547 342.559C235.28 340.307 240.535 336.992 245.038 332.789L249.138 324.599C247.168 325.359 240.518 312.819 240.518 312.819L237.617 313.925L235.937 313.439C235.937 313.439 222.827 317.169 220.147 319.889C217.467 322.609 216.567 321.849 214.147 322.459C211.727 323.069 211.427 324.769 210.667 324.579C209.907 324.389 208.557 326.689 207.497 326.389C206.437 326.089 204.167 327.299 202.657 327.599C201.147 327.899 190.417 332.439 190.417 332.439C183.777 329.079 165.777 330.439 165.777 330.439C165.777 330.439 159.887 326.969 158.217 330.439C157.768 331.425 157.047 332.262 156.138 332.852C155.229 333.442 154.171 333.76 153.087 333.769L145.907 330.699C145.49 332.222 137.659 316.346 137.618 317.925Z" fill="#3F3D56"/>
<path d="M57.3305 640.99L56.3328 618.556C45.9317 612.996 34.3307 610.06 22.5371 610.001C38.7686 623.271 36.7401 648.852 47.7447 666.698C51.2196 672.237 55.8965 676.924 61.4288 680.41C66.9612 683.897 73.2072 686.093 79.7039 686.838L93.287 695.154C95.1508 684.764 94.7399 674.093 92.0825 663.876C89.4252 653.66 84.5845 644.141 77.8941 635.975C74.0955 631.432 69.7397 627.384 64.9297 623.929C61.6766 632.507 57.3305 640.99 57.3305 640.99Z" fill="#F2F2F2"/>
<path d="M5.26468e-06 695.729C-0.000460811 695.885 0.0300235 696.04 0.0896659 696.185C0.149308 696.33 0.236937 696.461 0.347539 696.572C0.458142 696.682 0.58951 696.77 0.734106 696.829C0.878702 696.889 1.03366 696.919 1.19007 696.919H284.48C284.796 696.919 285.098 696.794 285.322 696.571C285.545 696.347 285.67 696.045 285.67 695.729C285.67 695.413 285.545 695.111 285.322 694.888C285.098 694.664 284.796 694.539 284.48 694.539H1.19007C1.03366 694.539 0.878699 694.569 0.734106 694.629C0.589512 694.688 0.45814 694.776 0.347539 694.887C0.236938 694.997 0.14931 695.128 0.0896659 695.273C0.0300216 695.418 -0.000455502 695.573 5.26468e-06 695.729Z" fill="#CCCCCC"/>
<path d="M295.494 302.729H289.494V304.729H295.494V302.729Z" fill="#3F3D56"/>
<path d="M307.607 302.73V304.73H319.727V302.73H307.607ZM331.847 302.73V304.73H343.957V302.73H331.847ZM356.077 302.73V304.73H368.197V302.73H356.077ZM380.307 302.73V304.73H392.427V302.73H380.307ZM404.547 302.73V304.73H416.657V302.73H404.547ZM428.777 302.73V304.73H440.897V302.73H428.777ZM453.007 302.73V304.73H465.127V302.73H453.007ZM477.247 302.73V304.73H489.357V302.73H477.247ZM501.477 302.73V304.73H513.597V302.73H501.477ZM525.707 302.73V304.73H537.827V302.73H525.707ZM549.937 302.73V304.73H562.057V302.73H549.937ZM574.177 302.73V304.73H586.287V302.73H574.177ZM598.407 302.73V304.73H599.307C599.337 304.52 599.367 304.32 599.397 304.12C599.467 303.66 599.527 303.2 599.597 302.73H598.407Z" fill="#3F3D56"/>
<path d="M399.494 262.729H393.494V264.729H399.494V262.729Z" fill="#3F3D56"/>
<path d="M411.607 262.73V264.73H423.727V262.73H411.607ZM435.847 262.73V264.73H447.957V262.73H435.847ZM460.077 262.73V264.73H472.197V262.73H460.077ZM484.307 262.73V264.73H496.427V262.73H484.307ZM508.547 262.73V264.73H520.657V262.73H508.547ZM532.777 262.73V264.73H544.897V262.73H532.777ZM557.007 262.73V264.73H569.127V262.73H557.007ZM581.247 262.73V264.73H593.357V262.73H581.247Z" fill="#3F3D56"/>
<path d="M510.494 292.729H504.494V294.729H510.494V292.729Z" fill="#3F3D56"/>
<path d="M522.607 292.73V294.73H534.727V292.73H522.607ZM546.847 292.73V294.73H558.957V292.73H546.847ZM571.077 292.73V294.73H583.197V292.73H571.077ZM595.307 292.73V294.73H600.577C600.617 294.28 600.667 293.83 600.717 293.38C600.737 293.17 600.757 292.95 600.777 292.73H595.307Z" fill="#3F3D56"/>
<path d="M153.107 501.309V436.9C153.109 435.596 153.627 434.346 154.549 433.424C155.471 432.502 156.721 431.984 158.025 431.982H206.668C207.972 431.984 209.221 432.502 210.143 433.424C211.065 434.346 211.584 435.596 211.585 436.9V501.309C211.584 502.613 211.065 503.862 210.143 504.784C209.221 505.706 207.972 506.225 206.668 506.226H158.025C156.721 506.225 155.471 505.706 154.549 504.784C153.627 503.862 153.109 502.613 153.107 501.309Z" fill="#E6E6E6"/>
<path d="M156.838 481.855V440.447C156.839 439.226 157.325 438.055 158.188 437.192C159.051 436.329 160.222 435.843 161.443 435.842H203.248C204.469 435.843 205.639 436.329 206.503 437.192C207.366 438.055 207.852 439.226 207.853 440.447V497.762C207.852 498.983 207.366 500.154 206.503 501.017C205.639 501.881 204.469 502.366 203.248 502.367H177.351C171.912 502.361 166.698 500.198 162.853 496.353C159.007 492.507 156.844 487.293 156.838 481.855Z" fill="white"/>
<path d="M163.607 452C163.609 450.807 164.083 449.663 164.927 448.819C165.771 447.976 166.914 447.501 168.107 447.5H197.107C198.301 447.5 199.445 447.974 200.289 448.818C201.133 449.662 201.607 450.807 201.607 452C201.607 453.193 201.133 454.338 200.289 455.182C199.445 456.026 198.301 456.5 197.107 456.5H168.107C166.914 456.499 165.771 456.024 164.927 455.181C164.083 454.337 163.609 453.193 163.607 452Z" fill="#E6E6E6"/>
<path d="M163.607 466C163.609 464.807 164.083 463.663 164.927 462.819C165.771 461.976 166.914 461.501 168.107 461.5H197.107C198.301 461.5 199.445 461.974 200.289 462.818C201.133 463.662 201.607 464.807 201.607 466C201.607 467.193 201.133 468.338 200.289 469.182C199.445 470.026 198.301 470.5 197.107 470.5H168.107C166.914 470.499 165.771 470.024 164.927 469.181C164.083 468.337 163.609 467.193 163.607 466Z" fill="#E6E6E6"/>
<path d="M163.607 480C163.609 478.807 164.083 477.663 164.927 476.819C165.771 475.976 166.914 475.501 168.107 475.5H197.107C198.301 475.5 199.445 475.974 200.289 476.818C201.133 477.662 201.607 478.807 201.607 480C201.607 481.193 201.133 482.338 200.289 483.182C199.445 484.026 198.301 484.5 197.107 484.5H168.107C166.914 484.499 165.771 484.024 164.927 483.181C164.083 482.337 163.609 481.193 163.607 480Z" fill="#E6E6E6"/>
<path d="M154.255 478.808C153.162 478.829 152.077 478.609 151.077 478.164C150.077 477.72 149.187 477.062 148.47 476.236C147.752 475.411 147.224 474.438 146.923 473.386C146.622 472.334 146.555 471.229 146.727 470.149L105.197 447.41L117.352 440.836L155.838 463.95C157.633 464.36 159.216 465.414 160.287 466.912C161.358 468.411 161.841 470.251 161.646 472.082C161.451 473.913 160.591 475.61 159.229 476.849C157.867 478.089 156.097 478.786 154.255 478.808Z" fill="#FFB8B8"/>
<path d="M130.107 462L115.38 459.385L110.107 455L106.561 453.194L94.3382 444.615L94.3018 444.507L74.8804 387.097C73.9887 382.383 74.9328 377.506 77.5196 373.465C80.1064 369.424 84.1402 366.524 88.795 365.36C91.369 364.72 94.0494 364.632 96.6598 365.102C99.2702 365.573 101.751 366.59 103.94 368.089C106.129 369.587 107.975 371.532 109.358 373.795C110.741 376.059 111.629 378.589 111.963 381.221L118.214 430.423L128.574 441.123L133.107 442L134.151 446.882L138.107 453L130.107 462Z" fill="#3F3D56"/>
</g>
<defs>
<clipPath id="clip0_609_117">
<rect width="602.107" height="696.919" fill="white"/>
</clipPath>
</defs>
</svg>
